<svg width="32" height="32" viewBox="0 0 32 32" fill="none" xmlns="http://www.w3.org/2000/svg">
<g clip-path="url(#clip0_1_2)">
<path d="M0 0C10.56 0 21.12 0 32 0C32 10.56 32 21.12 32 32C21.44 32 10.88 32 0 32C0 21.44 0 10.88 0 0Z" fill="black"/>
<path d="M10.3577 8.92699C10.3645 8.92698 10.3713 8.92696 10.3782 8.92694C10.4009 8.92688 10.4235 8.92689 10.4462 8.92689C10.4626 8.92686 10.479 8.92684 10.4954 8.9268C10.5405 8.92672 10.5855 8.92669 10.6306 8.92667C10.6792 8.92664 10.7279 8.92656 10.7765 8.92649C10.8884 8.92634 11.0003 8.92626 11.1122 8.92619C11.1676 8.92616 11.2229 8.92612 11.2783 8.92608C11.468 8.92593 11.6577 8.92581 11.8474 8.92575C11.8594 8.92575 11.8713 8.92575 11.8832 8.92574C11.892 8.92574 11.892 8.92574 11.9011 8.92574C11.931 8.92573 11.9609 8.92572 11.9908 8.92571C11.9967 8.92571 12.0026 8.9257 12.0088 8.9257C12.2009 8.92564 12.3931 8.92545 12.5853 8.92519C12.7887 8.92492 12.9922 8.92476 13.1956 8.92473C13.218 8.92473 13.2404 8.92473 13.2627 8.92472C13.271 8.92472 13.271 8.92472 13.2794 8.92472C13.3677 8.9247 13.456 8.92457 13.5443 8.92441C13.6333 8.92425 13.7222 8.92421 13.8112 8.92428C13.8593 8.92432 13.9074 8.9243 13.9555 8.92415C14.3297 8.923 14.3297 8.923 14.4879 8.96007C14.497 8.9621 14.497 8.9621 14.5062 8.96418C14.6174 8.9895 14.7339 9.02925 14.8319 9.08807C14.845 9.09354 14.858 9.099 14.871 9.10438C14.9071 9.12077 14.9414 9.14076 14.9759 9.16007C14.9759 9.16535 14.9759 9.17063 14.9759 9.17607C14.9863 9.17895 14.9863 9.17895 14.9969 9.18188C15.0863 9.21557 15.1639 9.30257 15.2319 9.36807C15.2359 9.37184 15.2398 9.3756 15.2439 9.37948C15.3711 9.50159 15.4706 9.64413 15.5519 9.80007C15.5545 9.80488 15.557 9.80969 15.5596 9.81464C15.6046 9.9022 15.6349 9.99421 15.6639 10.0881C15.6668 10.0969 15.6696 10.1057 15.6725 10.1148C15.6933 10.1869 15.6937 10.2615 15.6959 10.3361C15.7012 10.3361 15.7065 10.3361 15.7119 10.3361C15.7123 10.3815 15.7126 10.4269 15.7128 10.4723C15.7129 10.4877 15.713 10.5031 15.7132 10.5185C15.7134 10.5408 15.7134 10.563 15.7135 10.5853C15.7136 10.5921 15.7137 10.5989 15.7138 10.6059C15.7138 10.6457 15.7095 10.6817 15.6998 10.7203C15.6941 10.7438 15.692 10.7675 15.6894 10.7916C15.6833 10.8397 15.6735 10.8854 15.6604 10.9321C15.6588 10.938 15.6572 10.9439 15.6555 10.95C15.6449 10.9867 15.6314 11.0211 15.6159 11.0561C15.6102 11.0717 15.6046 11.0874 15.5989 11.1031C15.537 11.2634 15.4408 11.424 15.3186 11.5453C15.2999 11.5642 15.2816 11.5835 15.2633 11.6027C15.1263 11.7455 15.1263 11.7455 15.0441 11.786C15.0089 11.8036 14.9765 11.8243 14.9434 11.8456C14.9304 11.8539 14.9174 11.8621 14.9044 11.8704C14.8978 11.8746 14.8912 11.8788 14.8844 11.8832C14.8497 11.9051 14.8148 11.9266 14.7799 11.9481C14.7269 11.9808 14.6741 12.0137 14.6214 12.0471C14.4719 12.1417 14.3223 12.2364 14.17 12.3266C14.0886 12.3749 14.0088 12.4251 13.9297 12.4772C13.883 12.5078 13.836 12.5375 13.7879 12.5659C13.7283 12.6011 13.6701 12.6384 13.6117 12.6755C13.3621 12.834 13.3621 12.834 13.3069 12.8641C13.0861 12.9949 12.9021 13.1938 12.7759 13.4161C12.7707 13.4251 12.7655 13.4342 12.7601 13.4435C12.5724 13.7769 12.522 14.1717 12.5999 14.5441C12.6013 14.5508 12.6027 14.5576 12.6041 14.5645C12.6642 14.8509 12.8241 15.1104 13.0239 15.3201C13.0301 15.3267 13.0362 15.3334 13.0425 15.3402C13.148 15.451 13.3331 15.6104 13.4879 15.6401C13.4879 15.6453 13.4879 15.6506 13.4879 15.6561C13.4938 15.6571 13.4996 15.6581 13.5056 15.6591C13.5273 15.6639 13.5456 15.6708 13.5659 15.6796C13.6036 15.6951 13.64 15.7043 13.6799 15.7121C13.6799 15.7173 13.6799 15.7226 13.6799 15.7281C13.6892 15.7291 13.6984 15.73 13.7079 15.7311C13.7302 15.7335 13.7503 15.7378 13.772 15.7436C13.8164 15.7549 13.8614 15.7597 13.9069 15.7646C13.9165 15.7656 13.926 15.7666 13.9358 15.7677C14.0582 15.78 14.181 15.782 14.3039 15.7841C14.3039 15.7788 14.3039 15.7735 14.3039 15.7681C14.3084 15.7678 14.3129 15.7675 14.3175 15.7672C14.4154 15.7607 14.5004 15.7477 14.5919 15.7121C14.6044 15.7078 14.6169 15.7036 14.6294 15.6996C14.635 15.6977 14.6405 15.6958 14.6462 15.6939C14.6593 15.6896 14.6725 15.6855 14.6857 15.6815C14.7514 15.661 14.8113 15.6321 14.8719 15.6001C14.8796 15.5961 14.8873 15.5921 14.8952 15.588C15.0844 15.4881 15.2541 15.3379 15.3839 15.1681C15.3904 15.1597 15.3968 15.1513 15.4034 15.1427C15.4577 15.07 15.5021 14.9926 15.5439 14.9121C15.5466 14.9071 15.5492 14.9022 15.5519 14.8971C15.6458 14.7161 15.6954 14.515 15.7073 14.3124C15.7116 14.2457 15.7204 14.1801 15.7299 14.1141C15.7317 14.1015 15.7335 14.089 15.7353 14.0764C15.739 14.0505 15.7427 14.0246 15.7464 13.9987C15.7518 13.9613 15.7571 13.9238 15.7624 13.8864C15.7771 13.7822 15.7921 13.678 15.8084 13.5741C15.8196 13.5029 15.8294 13.4316 15.8384 13.3601C15.8527 13.2471 15.8682 13.1343 15.8839 13.0216C15.8852 13.0128 15.8864 13.004 15.8877 12.995C15.9008 12.9012 15.9141 12.8076 15.9289 12.7141C15.9409 12.6384 15.9511 12.5625 15.9609 12.4866C15.9805 12.3352 16.0016 12.1842 16.0229 12.0331C16.0238 12.0269 16.0247 12.0207 16.0256 12.0144C16.0505 11.8375 16.0758 11.6606 16.102 11.4839C16.1125 11.4126 16.1225 11.3412 16.1317 11.2696C16.1398 11.2063 16.1486 11.1431 16.158 11.08C16.1592 11.072 16.1604 11.064 16.1616 11.0558C16.1664 11.0234 16.1712 10.9911 16.1761 10.9587C16.1901 10.8661 16.2023 10.7737 16.2106 10.6804C16.215 10.6319 16.2215 10.5844 16.2309 10.5366C16.2408 10.4839 16.2494 10.4313 16.2563 10.3782C16.257 10.3729 16.2577 10.3675 16.2584 10.3621C16.2617 10.336 16.265 10.3099 16.2681 10.2838C16.2746 10.2315 16.2834 10.1818 16.2986 10.1314C16.3042 10.1112 16.3075 10.0913 16.3104 10.0706C16.3515 9.8367 16.5062 9.61059 16.6639 9.44007C16.6706 9.43262 16.6772 9.42518 16.684 9.41751C16.7231 9.37367 16.7627 9.33337 16.8079 9.29607C16.8175 9.28785 16.8175 9.28785 16.8273 9.27947C16.8829 9.23243 16.9418 9.19195 17.0029 9.15251C17.0137 9.14554 17.0244 9.13842 17.035 9.13126C17.0688 9.10898 17.1031 9.09413 17.1409 9.07985C17.1582 9.07276 17.1735 9.06478 17.1894 9.05507C17.2168 9.03959 17.2417 9.03231 17.2719 9.02407C17.2827 9.01839 17.2827 9.01839 17.2936 9.0126C17.3238 8.99825 17.3525 8.99107 17.3849 8.98407C17.3971 8.98135 17.4093 8.97862 17.4215 8.97588C17.4274 8.97456 17.4333 8.97325 17.4394 8.97189C17.4612 8.96685 17.4828 8.96094 17.5044 8.95507C17.6008 8.93102 17.6985 8.92569 17.7975 8.92609C17.8087 8.92608 17.8199 8.92606 17.8312 8.92603C17.8617 8.92598 17.8921 8.92603 17.9226 8.92609C17.9557 8.92615 17.9888 8.92611 18.0219 8.92608C18.0869 8.92604 18.1519 8.92608 18.2169 8.92616C18.2937 8.92624 18.3706 8.92624 18.4474 8.92624C18.586 8.92623 18.7246 8.92631 18.8632 8.92642C18.9948 8.92653 19.1265 8.92659 19.2582 8.92659C19.2743 8.92659 19.2904 8.92659 19.3065 8.92659C19.3184 8.92658 19.3184 8.92658 19.3306 8.92658C19.3385 8.92658 19.3465 8.92658 19.3547 8.92658C19.3666 8.92658 19.3666 8.92658 19.3787 8.92658C19.7329 8.92658 20.087 8.92701 20.4411 8.92779C20.5376 8.928 20.634 8.92815 20.7305 8.92826C20.8617 8.92841 20.9928 8.92871 21.124 8.92924C21.1868 8.9295 21.2496 8.9297 21.3123 8.92972C21.3644 8.92973 21.4165 8.92989 21.4686 8.93021C21.4947 8.93037 21.5207 8.93046 21.5468 8.9304C21.7147 8.93013 21.873 8.95262 22.0319 9.00807C22.0408 9.01101 22.0497 9.01395 22.0588 9.01697C22.1555 9.04994 22.2479 9.09228 22.3359 9.14407C22.3359 9.14935 22.3359 9.15463 22.3359 9.16007C22.3439 9.16169 22.3518 9.16331 22.36 9.16497C22.3987 9.17608 22.4253 9.19976 22.4554 9.22557C22.4611 9.23029 22.4668 9.23501 22.4726 9.23987C22.4885 9.25318 22.5042 9.26659 22.5199 9.28007C22.5265 9.28561 22.533 9.29114 22.5397 9.29685C22.5546 9.30976 22.5693 9.32288 22.5839 9.33607C22.5904 9.34171 22.5969 9.34735 22.6035 9.35316C22.6459 9.39044 22.6839 9.42874 22.7199 9.47207C22.726 9.47904 22.7321 9.48601 22.7384 9.49319C22.7877 9.5506 22.8306 9.61071 22.8713 9.67451C22.8788 9.68634 22.8865 9.69809 22.8942 9.70982C22.9268 9.76113 22.9473 9.8151 22.9679 9.87207C22.9746 9.88908 22.9813 9.90608 22.9879 9.92307C23.0614 10.1147 23.0998 10.2997 23.099 10.5048C23.099 10.5213 23.0991 10.5379 23.0991 10.5545C23.0992 10.5997 23.0992 10.6448 23.0991 10.69C23.099 10.7388 23.0991 10.7877 23.0992 10.8365C23.0993 10.9266 23.0993 11.0166 23.0992 11.1066C23.0991 11.1898 23.0991 11.2731 23.0992 11.3563C23.0992 11.3618 23.0992 11.3673 23.0992 11.373C23.0992 11.3955 23.0992 11.418 23.0992 11.4404C23.0993 11.651 23.0992 11.8615 23.0991 12.072C23.099 12.2587 23.099 12.4454 23.0991 12.6321C23.0992 12.8422 23.0993 13.0523 23.0992 13.2624C23.0992 13.2849 23.0992 13.3073 23.0992 13.3297C23.0992 13.338 23.0992 13.338 23.0992 13.3465C23.0991 13.4296 23.0992 13.5127 23.0992 13.5958C23.0993 13.6904 23.0993 13.785 23.0991 13.8796C23.0991 13.9278 23.0991 13.976 23.0991 14.0242C23.0992 14.0684 23.0992 14.1126 23.099 14.1569C23.099 14.1728 23.099 14.1887 23.0991 14.2046C23.0996 14.3477 23.0825 14.4847 23.0454 14.6231C23.0418 14.6368 23.0418 14.6368 23.0381 14.6509C23.0224 14.7091 23.004 14.7641 22.978 14.8185C22.9673 14.8403 22.9673 14.8403 22.9596 14.8653C22.9505 14.8924 22.9358 14.9125 22.9199 14.9361C22.9138 14.9539 22.9138 14.9539 22.9119 14.9681C22.9067 14.9681 22.9014 14.9681 22.8959 14.9681C22.8929 14.9786 22.8929 14.9786 22.8897 14.9893C22.8748 15.0302 22.8501 15.0631 22.8253 15.0986C22.8159 15.1122 22.8066 15.1258 22.7973 15.1395C22.7534 15.2035 22.705 15.2609 22.651 15.3166C22.6412 15.3268 22.6315 15.3371 22.6218 15.3475C22.4719 15.504 22.2445 15.6579 22.0325 15.7061C22.0079 15.7121 21.9844 15.7196 21.9604 15.7276C21.8475 15.7627 21.7294 15.7782 21.6121 15.7918C21.5733 15.7962 21.5348 15.8014 21.4962 15.808C21.4405 15.8176 21.3846 15.8239 21.3284 15.8302C21.2768 15.8362 21.2254 15.8433 21.174 15.8512C21.0875 15.8644 21.0008 15.876 20.9141 15.8875C20.7763 15.9059 20.6385 15.9246 20.5009 15.9445C20.4222 15.9559 20.3434 15.9664 20.2645 15.9759C20.2126 15.9823 20.1612 15.99 20.1096 15.9985C20.0379 16.0101 19.9658 16.0189 19.8938 16.0278C19.8382 16.0348 19.783 16.0426 19.7277 16.0516C19.6481 16.0645 19.5682 16.0746 19.4881 16.0846C19.3513 16.1016 19.2147 16.1197 19.0784 16.1406C18.9842 16.155 18.8899 16.1683 18.7951 16.1785C18.7241 16.1861 18.6531 16.1942 18.5829 16.2076C18.4877 16.2254 18.3918 16.2402 18.2949 16.2441C18.233 16.2466 18.1732 16.2551 18.1122 16.2654C18.0677 16.2729 18.0231 16.2793 17.9784 16.2856C17.9675 16.2871 17.9675 16.2871 17.9564 16.2888C17.9145 16.2945 17.8743 16.2971 17.8319 16.2961C17.8319 16.3013 17.8319 16.3066 17.8319 16.3121C17.8238 16.3123 17.8156 16.3126 17.8072 16.3128C17.7201 16.3162 17.6382 16.3294 17.5534 16.3491C17.5472 16.3505 17.5409 16.3519 17.5345 16.3534C17.4363 16.3757 17.3412 16.4019 17.2479 16.4401C17.2424 16.4422 17.2369 16.4444 17.2313 16.4466C17.065 16.5125 16.9203 16.6137 16.7839 16.7281C16.7793 16.7317 16.7746 16.7354 16.7698 16.7392C16.7416 16.7614 16.7189 16.7866 16.696 16.814C16.6823 16.8294 16.6683 16.8435 16.6535 16.8578C16.4776 17.0326 16.3222 17.3194 16.2959 17.5681C16.2907 17.5681 16.2854 17.5681 16.2799 17.5681C16.2802 17.5767 16.2802 17.5767 16.2805 17.5854C16.2807 17.5934 16.2808 17.6014 16.2809 17.6096C16.2811 17.6173 16.2813 17.625 16.2815 17.6329C16.2802 17.6596 16.2767 17.6837 16.272 17.71C16.2618 17.7734 16.2615 17.836 16.2619 17.9001C16.2619 17.92 16.2619 17.94 16.2618 17.9599C16.2617 18.0335 16.2661 18.1036 16.2799 18.1761C16.2818 18.1872 16.2836 18.1983 16.2854 18.2094C16.3351 18.4892 16.4645 18.7438 16.6531 18.9558C16.6638 18.9679 16.6745 18.9802 16.6851 18.9925C16.9466 19.2903 17.3447 19.4615 17.7359 19.4881C17.7813 19.4901 17.8266 19.4895 17.8719 19.4881C17.8775 19.4879 17.8831 19.4878 17.8889 19.4876C17.9756 19.4849 18.0591 19.4739 18.1439 19.4561C18.15 19.4548 18.1561 19.4536 18.1624 19.4523C18.4324 19.3964 18.6853 19.2611 18.882 19.0693C18.8951 19.0569 18.9085 19.0452 18.9223 19.0336C18.974 18.9899 19.0102 18.9433 19.0432 18.8844C19.069 18.8384 19.0979 18.7944 19.1264 18.7501C19.1376 18.7327 19.1488 18.7153 19.1599 18.6979C19.1654 18.6895 19.1708 18.6811 19.1764 18.6724C19.1986 18.6377 19.2205 18.6029 19.2424 18.5681C19.272 18.5212 19.3018 18.4745 19.3319 18.4281C19.3634 18.3796 19.3946 18.3309 19.4254 18.2821C19.4292 18.2762 19.4329 18.2704 19.4367 18.2643C19.4808 18.1944 19.5239 18.1237 19.5671 18.0532C19.62 17.9668 19.6733 17.8807 19.7287 17.7958C19.8034 17.6813 19.8767 17.5659 19.9489 17.4498C20.0853 17.2305 20.0853 17.2305 20.1413 17.143C20.1607 17.1127 20.1794 17.0823 20.197 17.0511C20.2588 16.9441 20.3397 16.8626 20.4288 16.7784C20.4683 16.7408 20.4683 16.7408 20.5038 16.6997C20.6494 16.5228 20.9414 16.4163 21.1544 16.3611C21.1603 16.3595 21.1661 16.358 21.1721 16.3564C21.2869 16.3287 21.4044 16.325 21.5219 16.3256C21.5288 16.3256 21.5356 16.3256 21.5427 16.3256C21.7164 16.3264 21.8672 16.3522 22.0319 16.4081C22.0379 16.41 22.0439 16.412 22.05 16.414C22.2488 16.4802 22.4509 16.6024 22.5954 16.7553C22.6092 16.7694 22.6239 16.7819 22.6389 16.7946C22.7485 16.8899 22.8907 17.0539 22.9199 17.2001C22.9252 17.2001 22.9305 17.2001 22.9359 17.2001C22.945 17.2216 22.954 17.2431 22.9629 17.2646C22.9668 17.2736 22.9668 17.2736 22.9706 17.2828C22.9921 17.3345 23.0078 17.3844 23.0159 17.4401C23.0212 17.4401 23.0265 17.4401 23.0319 17.4401C23.0383 17.4691 23.0446 17.4981 23.0509 17.5271C23.0527 17.5352 23.0545 17.5433 23.0563 17.5516C23.0616 17.5758 23.0668 17.5999 23.0719 17.6241C23.0735 17.631 23.075 17.638 23.0765 17.6452C23.0974 17.7438 23.0971 17.8412 23.0971 17.9416C23.0971 17.9578 23.0971 17.9739 23.0971 17.9901C23.0972 18.0343 23.0972 18.0786 23.0972 18.1229C23.0972 18.1706 23.0973 18.2184 23.0974 18.2662C23.0975 18.3761 23.0975 18.486 23.0976 18.5959C23.0976 18.6503 23.0976 18.7046 23.0976 18.759C23.0977 18.9453 23.0978 19.1316 23.0978 19.318C23.0979 19.3296 23.0979 19.3413 23.0979 19.353C23.0979 19.3647 23.0979 19.3765 23.0979 19.3882C23.0979 19.4117 23.0979 19.4352 23.0979 19.4587C23.0979 19.4645 23.0979 19.4703 23.0979 19.4763C23.0979 19.6651 23.098 19.8538 23.0982 20.0426C23.0984 20.2424 23.0985 20.4422 23.0985 20.642C23.0985 20.664 23.0985 20.6859 23.0985 20.7079C23.0985 20.7133 23.0985 20.7187 23.0985 20.7243C23.0985 20.811 23.0986 20.8978 23.0988 20.9845C23.0989 21.0719 23.0989 21.1592 23.0988 21.2465C23.0988 21.2938 23.0988 21.341 23.0989 21.3882C23.099 21.4316 23.099 21.475 23.0989 21.5183C23.0989 21.5339 23.0989 21.5495 23.099 21.565C23.0996 21.7041 23.0859 21.8419 23.0539 21.9776C23.0523 21.9847 23.0506 21.9919 23.0489 21.9992C23.0308 22.0739 23.0046 22.1449 22.9759 22.2161C22.9721 22.2259 22.9683 22.2356 22.9643 22.2457C22.9497 22.2822 22.936 22.3128 22.9119 22.3441C22.9063 22.3612 22.9063 22.3612 22.9039 22.3761C22.8987 22.3761 22.8934 22.3761 22.8879 22.3761C22.8879 22.3866 22.8879 22.3972 22.8879 22.4081C22.8827 22.4081 22.8774 22.4081 22.8719 22.4081C22.8687 22.4217 22.8687 22.4217 22.8654 22.4356C22.8623 22.445 22.8592 22.4544 22.8559 22.4641C22.848 22.4667 22.8401 22.4693 22.8319 22.4721C22.8263 22.4853 22.821 22.4986 22.8159 22.5121C22.6054 22.8289 22.2528 23.0685 21.8828 23.1549C21.7385 23.1829 21.597 23.1933 21.4503 23.1932C21.4342 23.1933 21.4181 23.1933 21.4021 23.1933C21.3581 23.1934 21.3141 23.1934 21.2701 23.1935C21.2225 23.1935 21.175 23.1936 21.1275 23.1936C21.0182 23.1938 20.909 23.1939 20.7997 23.1939C20.7456 23.194 20.6915 23.194 20.6374 23.1941C20.4521 23.1942 20.2667 23.1943 20.0813 23.1944C20.0697 23.1944 20.0581 23.1944 20.0464 23.1944C20.0378 23.1944 20.0378 23.1944 20.029 23.1944C19.9998 23.1944 19.9706 23.1944 19.9413 23.1944C19.9356 23.1944 19.9298 23.1944 19.9238 23.1944C19.7361 23.1945 19.5484 23.1947 19.3607 23.1949C19.1619 23.1952 18.9632 23.1954 18.7644 23.1954C18.7425 23.1954 18.7207 23.1954 18.6988 23.1954C18.6934 23.1954 18.688 23.1954 18.6825 23.1954C18.6016 23.1954 18.5207 23.1955 18.4397 23.1957C18.3475 23.1959 18.2553 23.1959 18.1631 23.1959C18.1162 23.1958 18.0692 23.1958 18.0223 23.196C17.7974 23.1967 17.5807 23.197 17.3649 23.1246C17.3556 23.1216 17.3463 23.1187 17.3367 23.1156C17.2764 23.0962 17.2181 23.0733 17.1599 23.0481C17.1486 23.0432 17.1373 23.0384 17.1259 23.0336C17.1151 23.0289 17.1151 23.0289 17.1039 23.0241C17.1039 23.0188 17.1039 23.0135 17.1039 23.0081C17.0984 23.0073 17.0929 23.0066 17.0872 23.0058C16.9752 22.9782 16.8683 22.8766 16.7861 22.8007C16.7695 22.7855 16.7526 22.771 16.7354 22.7566C16.6082 22.6454 16.5127 22.4991 16.4319 22.3521C16.4267 22.3426 16.4214 22.3331 16.4161 22.3236C16.3936 22.2828 16.374 22.2445 16.3599 22.2001C16.3524 22.1809 16.3446 22.1619 16.3367 22.1429C16.3124 22.0797 16.2978 22.0193 16.2884 21.9521C16.2871 21.9429 16.2858 21.9338 16.2844 21.9243C16.2816 21.9049 16.2789 21.8855 16.2761 21.8661C16.272 21.8371 16.2678 21.8082 16.2636 21.7792C16.249 21.6774 16.2358 21.5755 16.2243 21.4732C16.2158 21.3982 16.2062 21.3234 16.1959 21.2486C16.1951 21.2423 16.1942 21.236 16.1934 21.2295C16.183 21.1531 16.1721 21.0768 16.1596 21.0007C16.1515 20.9509 16.1456 20.9009 16.1402 20.8506C16.1359 20.8136 16.13 20.7769 16.1242 20.7401C16.117 20.6928 16.1108 20.6454 16.1044 20.5981C16.0959 20.5349 16.0872 20.4718 16.0754 20.4091C16.0648 20.352 16.0573 20.2946 16.0501 20.237C16.04 20.1583 16.028 20.08 16.0158 20.0017C16.0045 19.929 15.9946 19.8561 15.985 19.7832C15.9671 19.6469 15.9464 19.5111 15.9256 19.3752C15.9208 19.3441 15.9161 19.3131 15.9114 19.282C15.9099 19.2728 15.9085 19.2635 15.907 19.254C15.8993 19.2028 15.8933 19.1518 15.8896 19.1001C15.8875 19.0748 15.8828 19.0504 15.8774 19.0256C15.8641 18.9597 15.8555 18.8932 15.8469 18.8266C15.8456 18.8161 15.8442 18.8057 15.8428 18.7949C15.8354 18.7367 15.8296 18.6787 15.826 18.6201C15.8252 18.6001 15.8252 18.6001 15.8159 18.5841C15.8137 18.5612 15.8124 18.5384 15.811 18.5155C15.8087 18.4947 15.8055 18.4763 15.8007 18.456C15.7909 18.4128 15.7841 18.3692 15.7775 18.3254C15.7762 18.3167 15.7749 18.3081 15.7735 18.2992C15.7693 18.2716 15.7651 18.2441 15.7609 18.2166C15.7582 18.1986 15.7555 18.1807 15.7527 18.1627C15.7486 18.1357 15.7445 18.1088 15.7404 18.0818C15.7334 18.0359 15.7264 17.99 15.7192 17.9442C15.7053 17.8556 15.6921 17.7673 15.6834 17.6781C15.6636 17.4921 15.6095 17.3245 15.5199 17.1601C15.5174 17.1553 15.5149 17.1506 15.5123 17.1457C15.4163 16.9651 15.2799 16.8068 15.1199 16.6801C15.1123 16.6738 15.1047 16.6675 15.0968 16.6611C14.9855 16.5719 14.862 16.5007 14.7298 16.4473C14.7179 16.4425 14.7061 16.4376 14.6943 16.4326C14.3431 16.285 13.9097 16.3 13.5584 16.4381C13.3608 16.5189 13.1904 16.635 13.0354 16.7812C13.0248 16.7912 13.0142 16.8011 13.0034 16.811C12.9144 16.8959 12.8458 16.9983 12.7839 17.1041C12.7764 17.1161 12.7764 17.1161 12.7686 17.1284C12.6479 17.326 12.5815 17.5611 12.5694 17.7913C12.561 17.929 12.542 18.065 12.5227 18.2016C12.5154 18.2534 12.5082 18.3053 12.501 18.3571C12.4993 18.3696 12.4976 18.382 12.4959 18.3945C12.4847 18.4747 12.4747 18.555 12.4669 18.6356C12.4632 18.6714 12.4579 18.7066 12.4519 18.7421C12.4414 18.8086 12.435 18.875 12.4295 18.9421C12.4234 19.017 12.4158 19.0914 12.4001 19.165C12.3921 19.2049 12.3878 19.2443 12.3846 19.2848C12.3769 19.3724 12.3654 19.4592 12.3531 19.5462C12.3493 19.5729 12.3456 19.5995 12.3419 19.6262C12.3369 19.6622 12.3319 19.6981 12.3269 19.7341C12.3174 19.8021 12.3081 19.8701 12.2989 19.9381C12.2982 19.944 12.2974 19.9498 12.2965 19.9559C12.2832 20.0548 12.2705 20.1537 12.258 20.2526C12.2442 20.3611 12.2293 20.4694 12.214 20.5776C12.1933 20.724 12.1743 20.8706 12.1555 21.0172C12.1442 21.1054 12.1327 21.1935 12.1197 21.2814C12.1141 21.3199 12.1094 21.3584 12.1054 21.3971C12.0828 21.5779 12.0291 21.7552 11.982 21.9308C11.9712 21.9712 11.961 22.0118 11.951 22.0524C11.9396 22.0988 11.9269 22.1444 11.9114 22.1896C11.9095 22.1955 11.9076 22.2015 11.9056 22.2076C11.8948 22.2398 11.8824 22.2673 11.8639 22.2961C11.8584 22.3136 11.8584 22.3136 11.8559 22.3281C11.8507 22.3281 11.8454 22.3281 11.8399 22.3281C11.8376 22.3339 11.8353 22.3398 11.833 22.3458C11.7251 22.6116 11.4844 22.8358 11.2399 22.9761C11.2327 22.9803 11.2255 22.9845 11.2181 22.9888C11.1705 23.0161 11.1705 23.0161 11.1519 23.0161C11.1519 23.0214 11.1519 23.0266 11.1519 23.0321C11.1253 23.0428 11.0986 23.0535 11.0719 23.0641C11.0643 23.0672 11.0567 23.0702 11.0488 23.0734C10.934 23.1189 10.8179 23.1559 10.6959 23.1761C10.6873 23.1777 10.6786 23.1793 10.6697 23.181C10.3796 23.2292 10.0842 23.1759 9.81595 23.0641C9.80953 23.0614 9.80312 23.0588 9.79651 23.0561C9.64846 22.9953 9.52013 22.9098 9.40229 22.8009C9.38602 22.786 9.36938 22.7718 9.35245 22.7576C9.28912 22.7023 9.23156 22.6373 9.18395 22.5681C9.17797 22.5595 9.17199 22.5508 9.16582 22.542C9.01946 22.3286 8.91317 22.0902 8.87995 21.8321C8.87857 21.8222 8.87718 21.8124 8.87576 21.8022C8.87161 21.7688 8.87083 21.7356 8.87093 21.702C8.87092 21.6956 8.87091 21.6893 8.8709 21.6827C8.87086 21.6616 8.87089 21.6404 8.87091 21.6193C8.8709 21.604 8.87089 21.5888 8.87087 21.5735C8.87084 21.5319 8.87085 21.4903 8.87087 21.4487C8.8709 21.4043 8.87088 21.3599 8.87086 21.3155C8.87085 21.2401 8.87087 21.1648 8.87091 21.0894C8.87094 21.0138 8.87095 20.9383 8.87091 20.8627C8.8707 20.4544 8.8718 20.0463 8.87652 19.6381C8.87932 19.3943 8.88049 19.1505 8.8805 18.9067C8.88051 18.8519 8.88056 18.7972 8.88063 18.7424C8.88064 18.7334 8.88065 18.7244 8.88066 18.7152C8.88071 18.6789 8.88075 18.6427 8.8808 18.6064C8.88093 18.505 8.88096 18.4036 8.88075 18.3022C8.88057 18.2191 8.8806 18.136 8.88085 18.0529C8.88098 18.0097 8.88101 17.9665 8.88079 17.9233C8.87994 17.7436 8.88029 17.5785 8.94395 17.4081C8.94625 17.4017 8.94856 17.3954 8.95093 17.3889C8.96348 17.3547 8.9773 17.3214 8.99195 17.2881C8.99862 17.2714 9.00529 17.2547 9.01195 17.2381C9.08748 17.0591 9.21841 16.8753 9.36742 16.7502C9.37896 16.7403 9.39021 16.7301 9.40123 16.7197C9.49268 16.6335 9.60035 16.5702 9.70751 16.5056C9.77665 16.4638 9.84445 16.4204 9.91195 16.3761C9.93373 16.3618 9.95551 16.3476 9.97729 16.3333C9.99993 16.3185 10.0226 16.3037 10.0452 16.2889C10.0833 16.2639 10.1215 16.239 10.1601 16.2147C10.2312 16.1696 10.3009 16.1224 10.3709 16.0756C10.3853 16.066 10.3997 16.0564 10.414 16.0468C10.4428 16.0276 10.4715 16.0084 10.5003 15.9892C10.5516 15.9549 10.603 15.9207 10.6544 15.8865C10.693 15.8607 10.7316 15.8349 10.7702 15.8091C10.8222 15.7743 10.8744 15.74 10.927 15.7064C10.9748 15.6758 11.022 15.6443 11.0691 15.6127C11.1417 15.5641 11.2145 15.5157 11.2873 15.4673C11.3153 15.4487 11.3432 15.43 11.3712 15.4113C11.3828 15.4036 11.3944 15.3958 11.406 15.388C11.4116 15.3842 11.4173 15.3805 11.4231 15.3765C11.4571 15.3538 11.4913 15.3315 11.5257 15.3093C11.6066 15.2568 11.6701 15.2123 11.7199 15.1281C11.7269 15.1171 11.734 15.1062 11.741 15.0953C11.771 15.0486 11.7999 15.0022 11.8239 14.9521C11.8292 14.9521 11.8345 14.9521 11.8399 14.9521C11.8399 14.9415 11.8399 14.9309 11.8399 14.9201C11.8452 14.9201 11.8505 14.9201 11.8559 14.9201C11.8588 14.91 11.8616 14.8999 11.8644 14.8896C11.8727 14.8618 11.8819 14.8347 11.8923 14.8077C11.9203 14.7355 11.9437 14.6637 11.9624 14.5886C11.9644 14.5808 11.9663 14.5731 11.9683 14.5651C12.0153 14.3702 12.0285 14.1578 11.9919 13.9601C11.9905 13.9503 11.989 13.9405 11.9875 13.9304C11.9648 13.7898 11.912 13.6578 11.8549 13.528C11.8484 13.5131 11.8421 13.498 11.8358 13.483C11.7804 13.3572 11.6954 13.2468 11.6019 13.1472C11.5857 13.1299 11.5703 13.1122 11.5549 13.0941C11.5272 13.0622 11.4966 13.0349 11.4639 13.0081C11.459 13.0039 11.454 12.9998 11.4489 12.9955C11.3468 12.9129 11.2321 12.8454 11.1199 12.7777C11.098 12.7645 11.0762 12.751 11.0544 12.7376C10.9985 12.7031 10.9423 12.669 10.8862 12.6348C10.8505 12.6131 10.8147 12.5914 10.7791 12.5695C10.7734 12.566 10.7677 12.5625 10.7619 12.5589C10.7506 12.5521 10.7394 12.5452 10.7282 12.5383C10.6965 12.5188 10.6646 12.4997 10.6326 12.4808C10.614 12.4698 10.5954 12.4588 10.5768 12.4477C10.5631 12.4397 10.5494 12.4317 10.5357 12.4237C10.5275 12.4188 10.5192 12.4138 10.5106 12.4088C10.5032 12.4044 10.4957 12.4 10.488 12.3955C10.4827 12.3917 10.4774 12.388 10.4719 12.3841C10.4719 12.3788 10.4719 12.3735 10.4719 12.3681C10.4662 12.3673 10.4605 12.3665 10.4546 12.3656C10.4287 12.3593 10.4119 12.3494 10.3894 12.3351C10.3851 12.3323 10.3807 12.3296 10.3762 12.3267C10.366 12.3203 10.3558 12.3138 10.3456 12.3073C10.3103 12.2849 10.2749 12.2627 10.2394 12.2406C10.2313 12.2355 10.2232 12.2304 10.2148 12.2251C10.1227 12.1676 10.0298 12.1114 9.93689 12.0552C9.89789 12.0315 9.85903 12.0077 9.82018 11.9837C9.78845 11.9643 9.75649 11.9453 9.72429 11.9267C9.44755 11.7663 9.20289 11.5539 9.05595 11.2641C9.05595 11.2588 9.05595 11.2535 9.05595 11.2481C9.05067 11.2481 9.04539 11.2481 9.03995 11.2481C9.03474 11.2356 9.02958 11.2231 9.02445 11.2106C9.02157 11.2036 9.01869 11.1966 9.01573 11.1895C9.00829 11.169 9.00362 11.1495 8.99995 11.1281C8.99467 11.1281 8.98939 11.1281 8.98395 11.1281C8.82166 10.6642 8.83027 10.2193 9.03842 9.77148C9.10784 9.63009 9.21089 9.50453 9.31995 9.39207C9.3262 9.3855 9.33245 9.37893 9.33889 9.37216C9.44729 9.26048 9.61813 9.10712 9.77595 9.08007C9.77595 9.07479 9.77595 9.06951 9.77595 9.06407C9.81276 9.05016 9.8496 9.03634 9.88647 9.0226C9.90243 9.01664 9.91836 9.01059 9.93429 9.00454C9.98284 8.98649 10.0294 8.97174 10.0806 8.96379C10.1091 8.95926 10.1372 8.95342 10.1654 8.94757C10.2301 8.93417 10.2919 8.92687 10.3577 8.92699Z" fill="#069BB8"/>
<path d="M20.552 16.656C20.5573 16.6586 20.5626 16.6613 20.568 16.664C20.4941 16.7379 20.4202 16.8118 20.344 16.888C20.3387 16.8854 20.3334 16.8827 20.328 16.88C20.358 16.8501 20.3879 16.8201 20.4178 16.7902C20.423 16.785 20.4282 16.7798 20.4335 16.7745C20.4424 16.7656 20.4513 16.7567 20.4603 16.7479C20.4762 16.7322 20.4906 16.7167 20.5045 16.699C20.5191 16.6811 20.533 16.6689 20.552 16.656Z" fill="#0278AF"/>
<path d="M16.808 16.696C16.8132 16.6987 16.8185 16.7013 16.824 16.704C16.7606 16.7674 16.6972 16.8308 16.632 16.896C16.6267 16.8934 16.6214 16.8908 16.616 16.888C16.6219 16.8822 16.6219 16.8822 16.628 16.8763C16.6558 16.8489 16.6827 16.8213 16.708 16.7915C16.7359 16.759 16.7672 16.7316 16.8 16.704C16.8026 16.7014 16.8052 16.6988 16.808 16.696Z" fill="#011B20"/>
<path d="M9.40798 16.7119C9.41326 16.7146 9.41854 16.7172 9.42398 16.7199C9.37382 16.7701 9.32366 16.8202 9.27198 16.8719C9.2667 16.8693 9.26142 16.8666 9.25598 16.8639C9.29161 16.8221 9.3278 16.7833 9.36989 16.748C9.38328 16.7365 9.3957 16.7245 9.40798 16.7119Z" fill="#0AA592"/>
</g>
<defs>
<clipPath id="clip0_1_2">
<rect width="32" height="32" fill="white"/>
</clipPath>
</defs>
</svg>
